<svg width="34" height="50" viewBox="0 0 34 50" fill="none" xmlns="http://www.w3.org/2000/svg">
<path d="M32.7962 5.43773C32.3663 4.77943 31.7383 4.76053 31.0227 4.73898C30.9416 4.73654 30.8594 4.73407 30.7763 4.73062C30.7129 4.72771 30.643 4.72883 30.57 4.73C30.2798 4.73467 29.9403 4.74012 29.7692 4.49626C29.571 4.21354 29.5898 3.66718 29.6053 3.21613C29.6102 3.0736 29.6148 2.94051 29.6121 2.82835C29.5842 1.78057 29.5261 0.66756 29.1216 0.295481C28.8166 0.0163166 27.9042 0.0549911 27.0627 0.0906582C26.7899 0.102221 26.5246 0.113467 26.2898 0.113467H8.37842C8.01779 0.113467 7.63976 0.0841016 7.26833 0.0552487C6.54458 -0.000972664 5.84587 -0.0552486 5.3497 0.113467C4.62962 0.359517 4.58086 1.65246 4.53495 2.86996L4.53247 2.93547C4.49393 3.94056 4.24484 4.71613 3.41931 4.63801C2.45916 4.54861 1.50375 4.52042 1.06964 5.38941C0.556936 6.41757 0.662675 7.49383 0.852069 9.42157C0.879123 9.69694 0.907884 9.98968 0.936793 10.3021H33.0731C33.0915 10.0738 33.1111 9.8483 33.1303 9.6265C33.2808 7.89212 33.4119 6.38099 32.7962 5.43773Z" fill="#8047F8"/>
<path fill-rule="evenodd" clip-rule="evenodd" d="M3.43948 12.2141C3.94138 19.007 4.43781 25.8077 4.93425 32.6085L4.93455 32.6127C5.2041 36.3053 5.47365 39.9979 5.74408 43.6893H6.76947C6.83934 44.2672 6.91929 44.9805 7.00358 45.7326C7.17469 47.2594 7.36372 48.946 7.52265 49.9824H7.63606C8.68051 49.6003 15.9009 46.514 15.9041 34.2269C15.9028 34.1918 15.904 34.1568 15.9076 34.122H14.1238C14.0374 34.1212 13.9537 34.0924 13.8855 34.04C13.8174 33.9875 13.7685 33.9144 13.7465 33.8319C13.5726 33.4025 13.4325 32.9605 13.3272 32.5098C12.2778 33.1025 11.4444 34.0075 10.9459 35.0959C10.4727 33.9812 10.4107 32.7376 10.7709 31.5823C11.1311 30.4271 11.8905 29.4337 12.9164 28.7757C12.9296 25.1903 14.272 21.734 16.6895 19.0612L16.7273 19.028C16.7975 18.9673 16.8875 18.9335 16.9808 18.9327C17.0347 18.9332 17.088 18.9447 17.1373 18.9666C17.1871 18.9887 17.2317 19.0209 17.2681 19.0612C19.7139 21.7377 21.0492 25.2272 21.0077 28.8337C22.0528 29.4734 22.8276 30.4661 23.1884 31.6276C23.5493 32.7891 23.4716 34.0406 22.9698 35.1498C22.474 34.0597 21.6399 33.1539 20.5885 32.5637C20.5243 33.0005 20.406 33.4278 20.2363 33.836C20.1776 34.0101 20.0603 34.122 19.9429 34.122H18.0405C18.0435 34.1428 18.0456 34.1638 18.0468 34.1848L18.0476 34.1896V34.1998C18.0482 34.2179 18.0483 34.236 18.0476 34.2541C18.0737 46.894 25.7505 49.763 26.3976 49.9824H26.619C26.6755 48.9869 26.8594 47.6131 27.0387 46.2739C27.1623 45.3509 27.2837 44.4444 27.3597 43.6893H28.3969C28.7289 39.0396 29.0704 34.4028 29.4119 29.766L29.412 29.7635L29.4121 29.7621C29.8489 23.8311 30.2857 17.8999 30.7027 11.941H3.5059C3.42761 11.9564 3.43295 12.0844 3.43948 12.2141ZM16.9808 18.9327L16.9788 18.9327H16.983L16.9808 18.9327Z" fill="#8047F8"/>
</svg>
